HIERARCHY
ROOT Hips
{
	OFFSET -0.001795 -0.223333 0.028219
	CHANNELS 6 Xposition Yposition Zposition Zrotation Yrotation Xrotation 
	JOINT LeftUpLeg
	{
		OFFSET 0.069520 -0.091406 -0.006815
		CHANNELS 3 Zrotation Yrotation Xrotation
		JOINT LeftLeg
		{
			OFFSET 0.034277 -0.375199 -0.004496
			CHANNELS 3 Zrotation Yrotation Xrotation
			JOINT LeftFoot
			{
				OFFSET -0.013596 -0.397961 -0.043693
				CHANNELS 3 Zrotation Yrotation Xrotation
				JOINT LeftToe
				{
					OFFSET 0.026358 -0.055791 0.119288
					CHANNELS 3 Zrotation Yrotation Xrotation
					End Site
					{
						OFFSET 0.000000 0.000000 0.000000
					}
				}
			}
		}
	}
	JOINT RightUpLeg
	{
		OFFSET -0.067670 -0.090522 -0.004320
		CHANNELS 3 Zrotation Yrotation Xrotation
		JOINT RightLeg
		{
			OFFSET -0.038290 -0.382569 -0.008850
			CHANNELS 3 Zrotation Yrotation Xrotation
			JOINT RightFoot
			{
				OFFSET 0.015774 -0.398415 -0.042312
				CHANNELS 3 Zrotation Yrotation Xrotation
				JOINT RightToe
				{
					OFFSET -0.025372 -0.048144 0.123348
					CHANNELS 3 Zrotation Yrotation Xrotation
					End Site
					{
						OFFSET 0.000000 0.000000 0.000000
					}
				}
			}
		}
	}
	JOINT Spine
	{
		OFFSET -0.002533 0.108963 -0.026696
		CHANNELS 3 Zrotation Yrotation Xrotation
		JOINT Spine1
		{
			OFFSET 0.005487 0.135180 0.001092
			CHANNELS 3 Zrotation Yrotation Xrotation
			JOINT Spine2
			{
				OFFSET 0.001457 0.052922 0.025425
				CHANNELS 3 Zrotation Yrotation Xrotation
				JOINT Neck
				{
					OFFSET -0.002778 0.213870 -0.042857
					CHANNELS 3 Zrotation Yrotation Xrotation
					JOINT Head
					{
						OFFSET 0.005152 0.064970 0.051349
						CHANNELS 3 Zrotation Yrotation Xrotation
						End Site
						{
							OFFSET 0.000000 0.000000 0.000000
						}
					}
				}
				JOINT LeftShoulder
				{
					OFFSET 0.078845 0.121749 -0.034090
					CHANNELS 3 Zrotation Yrotation Xrotation
					JOINT LeftArm
					{
						OFFSET 0.090977 0.030469 -0.008868
						CHANNELS 3 Zrotation Yrotation Xrotation
						JOINT LeftForeArm
						{
							OFFSET 0.259612 -0.012772 -0.027456
							CHANNELS 3 Zrotation Yrotation Xrotation
							JOINT LeftHand
							{
								OFFSET 0.249234 0.008986 -0.001171
								CHANNELS 3 Zrotation Yrotation Xrotation
								End Site
								{
									OFFSET 0.000000 0.000000 0.000000
								}
							}
						}
					}
				}
				JOINT RightShoulder
				{
					OFFSET -0.081759 0.118833 -0.038615
					CHANNELS 3 Zrotation Yrotation Xrotation
					JOINT RightArm
					{
						OFFSET -0.096012 0.032551 -0.009143
						CHANNELS 3 Zrotation Yrotation Xrotation
						JOINT RightForeArm
						{
							OFFSET -0.253742 -0.013329 -0.021401
							CHANNELS 3 Zrotation Yrotation Xrotation
							JOINT RightHand
							{
								OFFSET -0.255298 0.007772 -0.005559
								CHANNELS 3 Zrotation Yrotation Xrotation
								End Site
								{
									OFFSET 0.000000 0.000000 0.000000
								}
							}
						}
					}
				}
			}
		}
	}
}
MOTION
Frames: 10
Frame Time: 0.050000
0.733221 0.940750 -0.510146 -179.992864 55.209201 174.048674 0.760925 -1.355162 -2.685252 -1.225082 -2.316461 5.904905 10.521606 0.235637 11.938926 0.000000 0.000000 0.000000 -1.953562 -4.960456 -9.230974 -27.888342 -23.156675 48.522586 28.848161 20.843281 20.221422 0.000000 0.000000 0.000000 -2.068042 -3.342590 17.256732 -4.979081 -2.135363 -7.027774 4.452727 8.661103 7.489681 3.695939 4.047691 -16.330687 0.000000 0.000000 0.000000 -18.616601 -7.826250 -31.894516 -39.999388 18.032705 -5.710198 -24.849573 -21.488398 1.841136 0.000000 0.000000 0.000000 17.146759 -7.989149 13.301802 45.181319 31.062631 7.614463 4.430573 42.190505 5.950291 0.000000 0.000000 0.000000 
0.749289 0.944272 -0.532060 -179.092438 55.826806 174.828845 0.889966 -1.780173 -0.136108 -1.583567 -2.208012 4.475604 11.219043 0.885734 11.805990 0.000000 0.000000 0.000000 -2.009019 -7.440727 -15.864404 -41.271794 -22.871514 61.091882 31.755148 23.068091 30.734659 0.000000 0.000000 0.000000 -2.157994 -3.795131 18.254707 -4.843631 -1.463850 -8.222267 3.964483 7.774008 8.226318 4.247676 4.768190 -17.824872 0.000000 0.000000 0.000000 -18.341153 -8.213396 -30.894927 -39.517091 15.466337 -4.794268 -25.067695 -22.508999 2.083529 0.000000 0.000000 0.000000 17.566631 -8.341995 13.096227 45.319319 30.382807 7.103520 5.524273 41.110166 6.003052 0.000000 0.000000 0.000000 
0.767789 0.947873 -0.550870 -178.024466 55.259552 175.631018 0.681893 -2.317934 2.315620 -0.686028 -1.871685 3.282991 10.991044 0.628257 11.559402 0.000000 0.000000 0.000000 -1.476881 -8.970217 -19.283110 -38.099793 -23.044380 59.954963 23.401764 20.269144 25.819741 0.000000 0.000000 0.000000 -2.497940 -4.057625 18.771636 -4.193078 -1.224326 -8.774427 3.538862 6.205332 8.218229 3.517820 5.559865 -18.892566 0.000000 0.000000 0.000000 -17.861584 -7.420116 -30.070803 -38.770733 13.234323 -4.202351 -27.208088 -24.590481 2.709801 0.000000 0.000000 0.000000 17.411160 -8.065825 12.960759 46.781845 29.411847 7.095094 5.641443 39.015943 5.326815 0.000000 0.000000 0.000000 
0.788802 0.950107 -0.568178 -177.065815 55.435026 176.813051 0.848092 -2.962718 4.368560 -0.418039 -1.712465 2.141683 11.424648 1.086085 11.593421 0.000000 0.000000 0.000000 -0.196196 -9.295626 -21.384410 -27.388064 -21.539894 50.015693 19.295507 18.172853 14.759075 0.000000 0.000000 0.000000 -2.632240 -4.035942 18.820529 -4.429942 -1.123688 -9.060145 4.020766 5.552595 8.862108 3.670608 5.847712 -19.179338 0.000000 0.000000 0.000000 -17.467222 -6.849644 -29.795989 -39.485925 10.367368 -3.517821 -26.908416 -25.654589 2.763177 0.000000 0.000000 0.000000 17.437365 -8.445799 12.560860 47.341784 28.283596 6.634030 6.415924 37.641676 5.246251 0.000000 0.000000 0.000000 
0.811789 0.949463 -0.584083 -176.797442 55.443696 178.058498 0.385888 -3.509506 6.354015 0.527847 -1.477224 0.014635 12.035571 1.297583 11.310571 0.000000 0.000000 0.000000 0.746455 -9.140535 -22.234174 -13.596533 -16.608685 34.859129 13.622582 10.890307 6.258282 0.000000 0.000000 0.000000 -2.595847 -3.679765 18.002596 -3.957610 -0.937813 -9.485142 3.389035 4.325674 9.164403 3.569613 6.466052 -20.611940 0.000000 0.000000 0.000000 -16.599512 -6.532421 -28.819413 -40.091976 9.413888 -3.640412 -27.444178 -28.188567 2.991319 0.000000 0.000000 0.000000 17.283274 -8.646290 12.179064 48.918086 26.488571 6.445573 7.001645 35.803273 4.919873 0.000000 0.000000 0.000000 
0.837771 0.946594 -0.598748 -177.896056 54.521566 178.416590 -0.336832 -3.878193 7.730312 1.012667 -1.476359 -1.519704 12.476146 0.806429 10.669965 0.000000 0.000000 0.000000 1.381584 -9.772504 -23.534777 -4.827005 -7.753240 18.057207 4.991557 1.684345 10.205406 0.000000 0.000000 0.000000 -2.105937 -3.692528 17.965279 -4.296368 -1.071253 -9.766123 2.988030 3.749040 8.240614 3.132410 6.189701 -19.985846 0.000000 0.000000 0.000000 -15.394777 -7.219096 -27.461739 -41.659428 8.004247 -3.748244 -27.181228 -30.159036 2.796975 0.000000 0.000000 0.000000 17.715503 -9.475021 11.969636 49.513272 24.416718 5.483022 8.908423 34.049461 4.993737 0.000000 0.000000 0.000000 
0.868252 0.941318 -0.612833 -178.995125 54.033571 177.835068 -1.299523 -4.489048 9.802631 1.896044 -1.252279 -1.832953 13.616450 0.761345 9.643657 0.000000 0.000000 0.000000 1.674255 -9.694000 -23.612526 -2.751087 -3.457954 8.785043 1.147998 0.366870 17.989910 0.000000 0.000000 0.000000 -1.884472 -3.614511 17.760286 -4.869276 -1.242288 -9.731979 3.115467 2.930609 8.595187 2.574665 6.536253 -20.401021 0.000000 0.000000 0.000000 -14.878154 -7.549764 -26.805616 -42.243174 7.155193 -3.761306 -26.887448 -32.294191 2.816742 0.000000 0.000000 0.000000 18.186737 -9.843222 12.031380 49.510321 23.230363 4.708738 7.550051 31.282186 3.776323 0.000000 0.000000 0.000000 
0.905123 0.934060 -0.626844 179.454902 52.090873 176.966297 -1.978660 -5.058486 11.079506 2.673194 -1.029469 -0.536809 14.397853 -0.372236 7.878504 0.000000 0.000000 0.000000 1.593313 -10.242328 -23.823049 -3.788593 -3.076978 8.577519 0.501418 0.643838 21.350349 0.000000 0.000000 0.000000 -1.674364 -3.403833 17.285438 -4.360534 -2.069901 -8.592144 1.642065 2.647696 6.860719 2.593584 5.935853 -19.929110 0.000000 0.000000 0.000000 -14.778507 -8.207289 -26.330553 -42.143476 6.374194 -3.434458 -28.119992 -32.254252 3.054259 0.000000 0.000000 0.000000 18.925245 -9.503923 13.141007 49.921162 21.477884 3.621107 7.251207 29.593680 3.094608 0.000000 0.000000 0.000000 
0.948264 0.928184 -0.640342 178.792798 51.308826 176.756015 -1.932331 -6.128109 12.925275 3.051134 -0.888189 0.571403 14.847181 -0.048637 7.860717 0.000000 0.000000 0.000000 1.563382 -10.383024 -23.822333 -4.432247 -4.560316 11.993979 0.607012 0.485530 19.982866 0.000000 0.000000 0.000000 -1.318451 -2.949088 16.186651 -4.441947 -2.999018 -6.933208 1.668456 2.530139 5.106008 1.800836 5.747602 -19.124843 0.000000 0.000000 0.000000 -14.959105 -6.354513 -26.503168 -42.897803 6.640698 -3.969126 -28.893515 -31.536944 3.119395 0.000000 0.000000 0.000000 19.899172 -10.565785 12.621098 48.942677 19.557672 2.197137 8.412661 28.152835 3.117242 0.000000 0.000000 0.000000 
0.995877 0.927770 -0.652907 179.436965 51.873793 178.712452 0.679381 -6.402403 11.676017 0.948651 -1.394873 5.544688 13.445800 0.358837 8.614673 0.000000 0.000000 0.000000 2.458474 -9.621019 -23.793583 -4.109185 -6.093112 14.364189 0.732267 0.233949 17.347346 0.000000 0.000000 0.000000 -0.193648 -2.007798 13.608270 -3.973135 -3.268462 -6.402903 1.783567 1.956277 3.504485 0.409116 5.491460 -17.511580 0.000000 0.000000 0.000000 -16.089721 -4.286573 -28.123224 -42.648684 10.101595 -5.110308 -31.283051 -31.114795 3.772259 0.000000 0.000000 0.000000 19.417702 -10.580563 11.878614 48.624524 17.242848 1.537155 9.948168 26.866851 3.346736 0.000000 0.000000 0.000000 
